<?xml version="1.0" encoding="UTF-8"?>
<svg xmlns="http://www.w3.org/2000/svg" xmlns:xlink="http://www.w3.org/1999/xlink" width="119px" height="50px" viewBox="0 0 119 50" version="1.1">
<g id="surface1">
<path style=" stroke:none;fill-rule:nonzero;fill:rgb(21.176471%,15.294118%,0.392157%);fill-opacity:1;" d="M 71.359375 16.964844 C 68.746094 16.964844 66.804688 18.25 66.804688 21.339844 C 66.804688 23.671875 68.085938 25.289062 71.21875 25.289062 C 73.871094 25.289062 75.675781 23.71875 75.675781 21.246094 C 75.675781 18.441406 74.0625 16.964844 71.359375 16.964844 Z M 66.136719 38.796875 C 65.519531 39.554688 64.90625 40.363281 64.90625 41.316406 C 64.90625 43.21875 67.324219 43.789062 70.644531 43.789062 C 73.398438 43.789062 77.148438 43.597656 77.148438 41.03125 C 77.148438 39.507812 75.34375 39.414062 73.066406 39.269531 Z M 80.183594 17.109375 C 81.039062 18.203125 81.941406 19.722656 81.941406 21.910156 C 81.941406 27.191406 77.8125 30.28125 71.835938 30.28125 C 70.3125 30.28125 68.9375 30.089844 68.085938 29.855469 L 66.519531 32.375 L 71.167969 32.660156 C 79.378906 33.183594 84.214844 33.421875 84.214844 39.746094 C 84.214844 45.214844 79.425781 48.304688 71.167969 48.304688 C 62.578125 48.304688 59.304688 46.117188 59.304688 42.359375 C 59.304688 40.21875 60.253906 39.082031 61.914062 37.507812 C 60.347656 36.84375 59.828125 35.65625 59.828125 34.371094 C 59.828125 33.324219 60.347656 32.375 61.203125 31.46875 C 62.058594 30.566406 63.007812 29.664062 64.144531 28.617188 C 61.820312 27.476562 60.0625 25.003906 60.0625 21.484375 C 60.0625 16.015625 63.671875 12.257812 70.929688 12.257812 C 72.972656 12.257812 74.207031 12.445312 75.296875 12.734375 L 84.550781 12.734375 L 84.550781 16.773438 L 80.183594 17.109375 "/>
<path style=" stroke:none;fill-rule:nonzero;fill:rgb(21.176471%,15.294118%,0.392157%);fill-opacity:1;" d="M 92.898438 8.464844 C 90.195312 8.464844 88.628906 6.894531 88.628906 4.183594 C 88.628906 1.476562 90.195312 0 92.898438 0 C 95.652344 0 97.21875 1.476562 97.21875 4.183594 C 97.21875 6.894531 95.652344 8.464844 92.898438 8.464844 Z M 86.777344 37.046875 L 86.777344 33.289062 L 89.199219 32.960938 C 89.863281 32.863281 89.957031 32.722656 89.957031 32.007812 L 89.957031 18.023438 C 89.957031 17.503906 89.816406 17.167969 89.339844 17.027344 L 86.777344 16.121094 L 87.296875 12.269531 L 97.121094 12.269531 L 97.121094 32.007812 C 97.121094 32.769531 97.167969 32.863281 97.882812 32.960938 L 100.300781 33.289062 L 100.300781 37.046875 L 86.777344 37.046875 "/>
<path style=" stroke:none;fill-rule:nonzero;fill:rgb(21.176471%,15.294118%,0.392157%);fill-opacity:1;" d="M 119.066406 35.203125 C 117.027344 36.199219 114.035156 37.105469 111.332031 37.105469 C 105.683594 37.105469 103.550781 34.824219 103.550781 29.445312 L 103.550781 16.988281 C 103.550781 16.703125 103.550781 16.511719 103.167969 16.511719 L 99.847656 16.511719 L 99.847656 12.28125 C 104.023438 11.800781 105.683594 9.710938 106.207031 4.527344 L 110.714844 4.527344 L 110.714844 11.28125 C 110.714844 11.613281 110.714844 11.757812 111.09375 11.757812 L 117.785156 11.757812 L 117.785156 16.511719 L 110.714844 16.511719 L 110.714844 27.878906 C 110.714844 30.683594 111.378906 31.777344 113.941406 31.777344 C 115.269531 31.777344 116.644531 31.445312 117.785156 31.015625 L 119.066406 35.203125 "/>
<path style=" stroke:none;fill-rule:nonzero;fill:rgb(94.117647%,23.529412%,18.039216%);fill-opacity:1;" d="M 48.757812 22.722656 L 27.058594 0.976562 C 25.8125 -0.273438 23.785156 -0.273438 22.535156 0.976562 L 18.027344 5.492188 L 23.742188 11.222656 C 25.074219 10.773438 26.59375 11.074219 27.652344 12.136719 C 28.71875 13.203125 29.015625 14.742188 28.554688 16.078125 L 34.066406 21.597656 C 35.398438 21.136719 36.933594 21.433594 38 22.503906 C 39.488281 23.992188 39.488281 26.410156 38 27.898438 C 36.511719 29.390625 34.101562 29.390625 32.613281 27.898438 C 31.492188 26.777344 31.21875 25.132812 31.785156 23.75 L 26.648438 18.601562 L 26.648438 32.148438 C 27.007812 32.328125 27.351562 32.570312 27.652344 32.871094 C 29.140625 34.363281 29.140625 36.777344 27.652344 38.269531 C 26.167969 39.757812 23.753906 39.757812 22.269531 38.269531 C 20.78125 36.777344 20.78125 34.363281 22.269531 32.871094 C 22.636719 32.503906 23.0625 32.226562 23.515625 32.039062 L 23.515625 18.363281 C 23.0625 18.179688 22.636719 17.902344 22.269531 17.53125 C 21.140625 16.402344 20.871094 14.746094 21.449219 13.359375 L 15.816406 7.710938 L 0.9375 22.621094 C -0.3125 23.875 -0.3125 25.90625 0.9375 27.160156 L 22.636719 48.902344 C 23.882812 50.15625 25.910156 50.15625 27.160156 48.902344 L 48.757812 27.257812 C 50.007812 26.007812 50.007812 23.976562 48.757812 22.722656 "/>
</g>
</svg>
