<?xml version="1.0" encoding="UTF-8"?>
<svg xmlns="http://www.w3.org/2000/svg" xmlns:xlink="http://www.w3.org/1999/xlink" width="231px" height="53px" viewBox="0 0 231 53" version="1.1">
<g id="surface1">
<path style=" stroke:none;fill-rule:nonzero;fill:rgb(9.019608%,7.45098%,12.941176%);fill-opacity:1;" d="M 84.148438 13.746094 C 77.558594 13.746094 72.816406 18.898438 72.816406 28.160156 C 72.816406 37.5 77.488281 42.652344 84.296875 42.652344 C 90.421875 42.652344 94.300781 38.941406 94.414062 33.058594 L 85.042969 33.058594 L 85.042969 27.230469 L 101.554688 27.230469 L 101.554688 32.191406 C 101.554688 42.800781 94.335938 49.351562 84.261719 49.351562 C 73.035156 49.351562 65.402344 41.269531 65.402344 28.238281 C 65.402344 14.96875 73.390625 7.054688 84.046875 7.054688 C 93.050781 7.054688 99.964844 12.683594 101.214844 20.765625 L 93.703125 20.765625 C 92.410156 16.402344 89.054688 13.746094 84.148438 13.746094 Z M 84.148438 13.746094 "/>
<path style=" stroke:none;fill-rule:nonzero;fill:rgb(9.019608%,7.45098%,12.941176%);fill-opacity:1;" d="M 106.519531 17.925781 L 113.71875 17.925781 L 113.71875 48.792969 L 106.519531 48.792969 Z M 110.140625 13.015625 C 107.832031 13.015625 105.980469 11.269531 105.980469 9.070312 C 105.980469 6.890625 107.867188 5.117188 110.152344 5.117188 C 112.425781 5.117188 114.300781 6.90625 114.300781 9.070312 C 114.300781 11.242188 112.425781 13.015625 110.152344 13.015625 Z M 110.140625 13.015625 "/>
<path style=" stroke:none;fill-rule:nonzero;fill:rgb(9.019608%,7.45098%,12.941176%);fill-opacity:1;" d="M 135.257812 23.546875 L 129.238281 23.546875 L 129.238281 39.515625 C 129.238281 42.460938 130.6875 43.105469 132.496094 43.105469 C 133.207031 43.09375 133.910156 43 134.605469 42.816406 L 135.820312 48.5 C 134.449219 48.960938 133.015625 49.210938 131.582031 49.238281 C 126.179688 49.402344 121.996094 46.535156 122.046875 40.730469 L 122.046875 23.546875 L 117.707031 23.546875 L 117.707031 17.925781 L 122.046875 17.925781 L 122.046875 10.511719 L 129.238281 10.511719 L 129.238281 17.925781 L 135.257812 17.925781 Z M 135.257812 23.546875 "/>
<path style=" stroke:none;fill-rule:nonzero;fill:rgb(9.019608%,7.45098%,12.941176%);fill-opacity:1;" d="M 140.824219 7.621094 L 148.203125 7.621094 L 148.203125 42.539062 L 166.128906 42.539062 L 166.128906 48.792969 L 140.824219 48.792969 Z M 140.824219 7.621094 "/>
<path style=" stroke:none;fill-rule:evenodd;fill:rgb(9.019608%,7.45098%,12.941176%);fill-opacity:1;" d="M 169.714844 40.125 C 169.714844 33.171875 175.378906 31.382812 181.292969 30.738281 C 186.683594 30.15625 188.847656 30.042969 188.847656 27.960938 L 188.847656 27.847656 C 188.847656 24.804688 187.03125 23.078125 183.679688 23.078125 C 180.164062 23.078125 178.121094 24.882812 177.417969 27.003906 L 170.695312 26.023438 C 172.277344 20.402344 177.210938 17.507812 183.636719 17.507812 C 189.453125 17.507812 196.027344 19.957031 196.027344 28.125 L 196.027344 48.792969 L 189.105469 48.792969 L 189.105469 44.554688 L 188.863281 44.554688 C 187.554688 47.144531 184.695312 49.410156 179.910156 49.410156 C 174.082031 49.410156 169.699219 46.195312 169.714844 40.125 Z M 182.273438 44.066406 C 186.605469 44.066406 189.351562 41.148438 189.332031 37.71875 L 189.332031 34.085938 C 188.394531 34.851562 184.625 35.328125 182.734375 35.589844 C 179.527344 36.058594 177.125 37.222656 177.125 40.019531 C 177.125 42.695312 179.269531 44.078125 182.273438 44.078125 Z M 182.273438 44.066406 "/>
<path style=" stroke:none;fill-rule:evenodd;fill:rgb(9.019608%,7.45098%,12.941176%);fill-opacity:1;" d="M 201.335938 7.621094 L 208.515625 7.621094 L 208.515625 23.023438 L 208.820312 23.023438 C 209.914062 20.78125 212.164062 17.507812 217.546875 17.507812 C 224.601562 17.507812 230.148438 23.085938 230.148438 33.390625 C 230.148438 43.5625 224.765625 49.34375 217.566406 49.34375 C 212.328125 49.34375 209.957031 46.179688 208.820312 43.929688 L 208.402344 43.929688 L 208.402344 48.792969 L 201.335938 48.792969 Z M 215.558594 43.363281 C 220.320312 43.363281 222.820312 39.105469 222.820312 33.355469 C 222.820312 27.59375 220.351562 23.476562 215.558594 23.476562 C 210.929688 23.476562 208.394531 27.34375 208.394531 33.355469 C 208.394531 39.351562 210.972656 43.363281 215.558594 43.363281 Z M 215.558594 43.363281 "/>
<path style=" stroke:none;fill-rule:nonzero;fill:rgb(88.627451%,26.27451%,16.078431%);fill-opacity:1;" d="M 47.519531 36.898438 L 47.492188 36.917969 L 36.785156 45.03125 L 31.507812 49.0625 L 28.292969 51.515625 C 27.527344 52.113281 26.453125 52.113281 25.6875 51.515625 L 22.484375 49.0625 L 17.203125 45.03125 L 6.566406 36.960938 L 6.511719 36.917969 L 6.476562 36.898438 C 1.859375 33.371094 0.105469 27.1875 2.171875 21.722656 L 2.25 21.53125 L 9.230469 3.074219 C 9.371094 2.71875 9.621094 2.414062 9.953125 2.207031 C 10.445312 1.886719 11.054688 1.824219 11.601562 2.03125 C 12.148438 2.242188 12.558594 2.695312 12.730469 3.277344 L 17.4375 17.890625 L 36.558594 17.890625 L 41.285156 3.277344 C 41.441406 2.695312 41.859375 2.242188 42.40625 2.03125 C 42.945312 1.824219 43.558594 1.875 44.054688 2.207031 C 44.375 2.414062 44.628906 2.71875 44.777344 3.074219 L 51.765625 21.53125 L 51.835938 21.722656 C 53.894531 27.1875 52.140625 33.371094 47.519531 36.898438 Z M 47.519531 36.898438 "/>
<path style=" stroke:none;fill-rule:nonzero;fill:rgb(98.823529%,42.745098%,14.901961%);fill-opacity:1;" d="M 47.527344 36.898438 L 47.503906 36.917969 L 36.785156 45.03125 L 27.007812 37.550781 L 42.363281 25.8125 C 45.148438 23.703125 48.363281 22.242188 51.765625 21.53125 L 51.835938 21.722656 C 53.894531 27.1875 52.140625 33.371094 47.527344 36.898438 Z M 47.527344 36.898438 "/>
<path style=" stroke:none;fill-rule:nonzero;fill:rgb(98.823529%,63.921569%,14.901961%);fill-opacity:1;" d="M 27 37.550781 L 36.785156 45.03125 L 31.507812 49.0625 L 28.292969 51.515625 C 27.527344 52.113281 26.453125 52.113281 25.6875 51.515625 L 22.484375 49.0625 L 17.203125 45.03125 Z M 27 37.550781 "/>
<path style=" stroke:none;fill-rule:nonzero;fill:rgb(98.823529%,42.745098%,14.901961%);fill-opacity:1;" d="M 26.980469 37.550781 L 17.203125 45.03125 L 6.566406 36.960938 L 6.511719 36.917969 L 6.476562 36.898438 C 1.859375 33.371094 0.105469 27.1875 2.171875 21.722656 L 2.25 21.53125 C 5.644531 22.242188 8.859375 23.703125 11.636719 25.8125 Z M 26.980469 37.550781 "/>
</g>
</svg>
