<?xml version="1.0" encoding="UTF-8"?>
<svg xmlns="http://www.w3.org/2000/svg" xmlns:xlink="http://www.w3.org/1999/xlink" width="276px" height="136px" viewBox="0 0 354 136" version="1.1">
<g id="surface1">
<path style=" stroke:none;fill-rule:nonzero;fill:rgb(9.019608%,7.45098%,12.941176%);fill-opacity:1;" d="M 153.371094 61.382812 L 161.519531 61.382812 C 160.15625 52.714844 152.660156 46.679688 142.902344 46.679688 C 131.355469 46.679688 122.691406 55.167969 122.691406 69.402344 C 122.691406 83.375 130.964844 92.046875 143.140625 92.046875 C 154.0625 92.046875 161.878906 85.011719 161.878906 73.632812 L 161.878906 68.320312 L 143.984375 68.320312 L 143.984375 74.574219 L 154.144531 74.574219 C 154.023438 80.878906 149.816406 84.859375 143.179688 84.859375 C 135.796875 84.859375 130.726562 79.328125 130.726562 69.3125 C 130.726562 59.378906 135.875 53.855469 143.011719 53.855469 C 148.332031 53.855469 151.96875 56.703125 153.371094 61.382812 Z M 153.371094 61.382812 "/>
<path style=" stroke:none;fill-rule:nonzero;fill:rgb(9.019608%,7.45098%,12.941176%);fill-opacity:1;" d="M 167.269531 91.445312 L 175.066406 91.445312 L 175.066406 58.335938 L 167.269531 58.335938 Z M 171.199219 53.074219 C 173.671875 53.074219 175.699219 51.171875 175.699219 48.84375 C 175.699219 46.519531 173.671875 44.605469 171.199219 44.605469 C 168.722656 44.605469 166.679688 46.5 166.679688 48.84375 C 166.679688 51.199219 168.683594 53.074219 171.1875 53.074219 Z M 171.199219 53.074219 "/>
<path style=" stroke:none;fill-rule:nonzero;fill:rgb(9.019608%,7.45098%,12.941176%);fill-opacity:1;" d="M 198.421875 58.335938 L 191.890625 58.335938 L 191.890625 50.386719 L 184.09375 50.386719 L 184.09375 58.335938 L 179.394531 58.335938 L 179.394531 64.371094 L 184.09375 64.371094 L 184.09375 82.792969 C 184.042969 89.019531 188.574219 92.097656 194.433594 91.917969 C 195.988281 91.886719 197.542969 91.625 199.023438 91.132812 L 197.710938 85.03125 C 196.960938 85.230469 196.199219 85.332031 195.425781 85.339844 C 193.464844 85.339844 191.890625 84.648438 191.890625 81.492188 L 191.890625 64.363281 L 198.421875 64.363281 Z M 198.421875 58.335938 "/>
<path style=" stroke:none;fill-rule:nonzero;fill:rgb(9.019608%,7.45098%,12.941176%);fill-opacity:1;" d="M 204.457031 91.445312 L 231.882812 91.445312 L 231.882812 84.738281 L 212.453125 84.738281 L 212.453125 47.28125 L 204.457031 47.28125 Z M 204.457031 91.445312 "/>
<path style=" stroke:none;fill-rule:nonzero;fill:rgb(9.019608%,7.45098%,12.941176%);fill-opacity:1;" d="M 246.820312 92.105469 C 252.011719 92.105469 255.109375 89.671875 256.53125 86.894531 L 256.792969 86.894531 L 256.792969 91.445312 L 264.296875 91.445312 L 264.296875 69.273438 C 264.296875 60.523438 257.171875 57.886719 250.859375 57.886719 C 243.894531 57.886719 238.554688 60.992188 236.832031 67.027344 L 244.117188 68.070312 C 244.886719 65.804688 247.09375 63.859375 250.910156 63.859375 C 254.539062 63.859375 256.511719 65.714844 256.511719 68.972656 L 256.511719 69.101562 C 256.511719 71.335938 254.167969 71.457031 248.324219 72.078125 C 241.910156 72.769531 235.769531 74.6875 235.769531 82.144531 C 235.75 88.660156 240.507812 92.105469 246.820312 92.105469 Z M 249.386719 86.382812 C 246.128906 86.382812 243.804688 84.898438 243.804688 82.03125 C 243.804688 79.027344 246.410156 77.78125 249.878906 77.28125 C 251.933594 77 256.019531 76.488281 257.03125 75.667969 L 257.03125 79.566406 C 257.054688 83.246094 254.078125 86.375 249.386719 86.375 Z M 249.386719 86.382812 "/>
<path style=" stroke:none;fill-rule:nonzero;fill:rgb(9.019608%,7.45098%,12.941176%);fill-opacity:1;" d="M 270.050781 91.445312 L 277.714844 91.445312 L 277.714844 86.222656 L 278.164062 86.222656 C 279.398438 88.636719 281.964844 92.027344 287.644531 92.027344 C 295.449219 92.027344 301.28125 85.832031 301.28125 74.925781 C 301.28125 63.878906 295.269531 57.886719 287.625 57.886719 C 281.78125 57.886719 279.347656 61.40625 278.164062 63.800781 L 277.835938 63.800781 L 277.835938 47.28125 L 270.050781 47.28125 Z M 277.695312 74.886719 C 277.695312 68.441406 280.449219 64.292969 285.46875 64.292969 C 290.660156 64.292969 293.335938 68.710938 293.335938 74.886719 C 293.335938 81.050781 290.621094 85.621094 285.46875 85.621094 C 280.492188 85.621094 277.695312 81.3125 277.695312 74.886719 Z M 277.695312 74.886719 "/>
<path style=" stroke:none;fill-rule:nonzero;fill:rgb(88.627451%,26.27451%,16.078431%);fill-opacity:1;" d="M 107.988281 62.40625 L 107.910156 62.207031 L 100.335938 42.410156 C 100.171875 42.027344 99.902344 41.699219 99.550781 41.476562 C 99.019531 41.125 98.351562 41.066406 97.757812 41.289062 C 97.167969 41.519531 96.714844 42.007812 96.546875 42.621094 L 91.425781 58.296875 L 70.703125 58.296875 L 65.59375 42.621094 C 65.414062 42.007812 64.960938 41.519531 64.371094 41.289062 C 63.78125 41.066406 63.117188 41.136719 62.585938 41.476562 C 62.226562 41.699219 61.957031 42.027344 61.804688 42.410156 L 54.230469 62.207031 L 54.148438 62.40625 C 51.90625 68.269531 53.808594 74.90625 58.820312 78.683594 L 58.851562 78.707031 L 58.910156 78.753906 L 70.441406 87.40625 L 76.164062 91.734375 L 79.640625 94.363281 C 80.472656 95.003906 81.636719 95.003906 82.46875 94.363281 L 85.945312 91.734375 L 91.667969 87.40625 L 103.28125 78.707031 L 103.308594 78.683594 C 108.320312 74.90625 110.222656 68.269531 107.988281 62.40625 Z M 107.988281 62.40625 "/>
<path style=" stroke:none;fill-rule:nonzero;fill:rgb(98.823529%,42.745098%,14.901961%);fill-opacity:1;" d="M 107.988281 62.40625 L 107.910156 62.207031 C 104.222656 62.96875 100.734375 64.53125 97.71875 66.796875 L 81.074219 79.386719 L 91.675781 87.40625 L 103.289062 78.707031 L 103.320312 78.683594 C 108.320312 74.90625 110.222656 68.269531 107.988281 62.40625 Z M 107.988281 62.40625 "/>
<path style=" stroke:none;fill-rule:nonzero;fill:rgb(98.823529%,63.921569%,14.901961%);fill-opacity:1;" d="M 70.441406 87.40625 L 76.164062 91.734375 L 79.640625 94.363281 C 80.472656 95.003906 81.636719 95.003906 82.46875 94.363281 L 85.945312 91.734375 L 91.667969 87.40625 L 81.066406 79.386719 Z M 70.441406 87.40625 "/>
<path style=" stroke:none;fill-rule:nonzero;fill:rgb(98.823529%,42.745098%,14.901961%);fill-opacity:1;" d="M 64.410156 66.796875 C 61.394531 64.53125 57.917969 62.96875 54.230469 62.207031 L 54.148438 62.40625 C 51.90625 68.269531 53.808594 74.90625 58.820312 78.683594 L 58.851562 78.707031 L 58.910156 78.753906 L 70.441406 87.40625 L 81.042969 79.386719 Z M 64.410156 66.796875 "/>
</g>
</svg>
