<?xml version="1.0" encoding="UTF-8"?>
<svg xmlns="http://www.w3.org/2000/svg" xmlns:xlink="http://www.w3.org/1999/xlink" width="317px" height="156px" viewBox="0 0 316 156" version="1.1">
<g id="surface1">
<path style=" stroke:none;fill-rule:nonzero;fill:rgb(9.019608%,7.45098%,12.941176%);fill-opacity:1;" d="M 136.90625 72.082031 L 144.179688 72.082031 C 142.964844 64.332031 136.273438 58.933594 127.5625 58.933594 C 117.253906 58.933594 109.519531 66.523438 109.519531 79.253906 C 109.519531 91.75 116.90625 99.503906 127.773438 99.503906 C 137.523438 99.503906 144.503906 93.214844 144.503906 83.039062 L 144.503906 78.285156 L 128.527344 78.285156 L 128.527344 83.878906 L 137.597656 83.878906 C 137.488281 89.519531 133.734375 93.078125 127.808594 93.078125 C 121.21875 93.078125 116.695312 88.132812 116.695312 79.171875 C 116.695312 70.289062 121.289062 65.351562 127.660156 65.351562 C 132.410156 65.351562 135.65625 67.898438 136.90625 72.082031 Z M 136.90625 72.082031 "/>
<path style=" stroke:none;fill-rule:nonzero;fill:rgb(9.019608%,7.45098%,12.941176%);fill-opacity:1;" d="M 149.3125 98.96875 L 156.273438 98.96875 L 156.273438 69.355469 L 149.3125 69.355469 Z M 152.820312 64.652344 C 155.027344 64.652344 156.839844 62.949219 156.839844 60.867188 C 156.839844 58.789062 155.027344 57.078125 152.820312 57.078125 C 150.609375 57.078125 148.789062 58.773438 148.789062 60.867188 C 148.789062 62.976562 150.578125 64.652344 152.8125 64.652344 Z M 152.820312 64.652344 "/>
<path style=" stroke:none;fill-rule:nonzero;fill:rgb(9.019608%,7.45098%,12.941176%);fill-opacity:1;" d="M 177.121094 69.355469 L 171.292969 69.355469 L 171.292969 62.25 L 164.332031 62.25 L 164.332031 69.355469 L 160.136719 69.355469 L 160.136719 74.753906 L 164.332031 74.753906 L 164.332031 91.230469 C 164.285156 96.796875 168.332031 99.550781 173.5625 99.390625 C 174.949219 99.363281 176.335938 99.128906 177.660156 98.6875 L 176.488281 93.230469 C 175.816406 93.410156 175.136719 93.5 174.449219 93.507812 C 172.699219 93.507812 171.292969 92.890625 171.292969 90.066406 L 171.292969 74.746094 L 177.121094 74.746094 Z M 177.121094 69.355469 "/>
<path style=" stroke:none;fill-rule:nonzero;fill:rgb(9.019608%,7.45098%,12.941176%);fill-opacity:1;" d="M 182.507812 98.96875 L 206.992188 98.96875 L 206.992188 92.96875 L 189.648438 92.96875 L 189.648438 59.472656 L 182.507812 59.472656 Z M 182.507812 98.96875 "/>
<path style=" stroke:none;fill-rule:nonzero;fill:rgb(9.019608%,7.45098%,12.941176%);fill-opacity:1;" d="M 220.324219 99.558594 C 224.960938 99.558594 227.726562 97.382812 228.992188 94.898438 L 229.226562 94.898438 L 229.226562 98.96875 L 235.925781 98.96875 L 235.925781 79.140625 C 235.925781 71.3125 229.566406 68.957031 223.929688 68.957031 C 217.714844 68.957031 212.945312 71.734375 211.410156 77.128906 L 217.914062 78.0625 C 218.597656 76.035156 220.570312 74.296875 223.976562 74.296875 C 227.214844 74.296875 228.976562 75.957031 228.976562 78.871094 L 228.976562 78.984375 C 228.976562 80.984375 226.882812 81.089844 221.667969 81.648438 C 215.941406 82.265625 210.460938 83.980469 210.460938 90.648438 C 210.445312 96.476562 214.691406 99.558594 220.324219 99.558594 Z M 222.617188 94.441406 C 219.707031 94.441406 217.632812 93.113281 217.632812 90.546875 C 217.632812 87.863281 219.960938 86.746094 223.054688 86.300781 C 224.890625 86.050781 228.539062 85.589844 229.441406 84.859375 L 229.441406 88.34375 C 229.460938 91.636719 226.804688 94.433594 222.617188 94.433594 Z M 222.617188 94.441406 "/>
<path style=" stroke:none;fill-rule:nonzero;fill:rgb(9.019608%,7.45098%,12.941176%);fill-opacity:1;" d="M 241.0625 98.96875 L 247.902344 98.96875 L 247.902344 94.296875 L 248.304688 94.296875 C 249.40625 96.457031 251.699219 99.488281 256.765625 99.488281 C 263.734375 99.488281 268.941406 93.949219 268.941406 84.195312 C 268.941406 74.3125 263.574219 68.957031 256.75 68.957031 C 251.535156 68.957031 249.359375 72.101562 248.304688 74.246094 L 248.011719 74.246094 L 248.011719 59.472656 L 241.0625 59.472656 Z M 247.886719 84.160156 C 247.886719 78.394531 250.34375 74.683594 254.824219 74.683594 C 259.460938 74.683594 261.847656 78.636719 261.847656 84.160156 C 261.847656 89.671875 259.425781 93.757812 254.824219 93.757812 C 250.382812 93.757812 247.886719 89.90625 247.886719 84.160156 Z M 247.886719 84.160156 "/>
<path style=" stroke:none;fill-rule:nonzero;fill:rgb(88.627451%,26.27451%,16.078431%);fill-opacity:1;" d="M 96.394531 72.996094 L 96.328125 72.820312 L 89.566406 55.113281 C 89.417969 54.773438 89.179688 54.480469 88.863281 54.28125 C 88.390625 53.964844 87.792969 53.914062 87.265625 54.113281 C 86.738281 54.316406 86.332031 54.753906 86.183594 55.304688 L 81.613281 69.324219 L 63.113281 69.324219 L 58.550781 55.304688 C 58.390625 54.753906 57.988281 54.316406 57.460938 54.113281 C 56.933594 53.914062 56.34375 53.976562 55.867188 54.28125 C 55.546875 54.480469 55.304688 54.773438 55.171875 55.113281 L 48.410156 72.820312 L 48.335938 72.996094 C 46.335938 78.242188 48.03125 84.175781 52.507812 87.554688 L 52.535156 87.574219 L 52.585938 87.617188 L 62.878906 95.355469 L 67.988281 99.226562 L 71.089844 101.578125 C 71.835938 102.148438 72.875 102.148438 73.617188 101.578125 L 76.71875 99.226562 L 81.828125 95.355469 L 92.195312 87.574219 L 92.21875 87.554688 C 96.691406 84.175781 98.390625 78.242188 96.394531 72.996094 Z M 96.394531 72.996094 "/>
<path style=" stroke:none;fill-rule:nonzero;fill:rgb(98.823529%,42.745098%,14.901961%);fill-opacity:1;" d="M 96.394531 72.996094 L 96.328125 72.820312 C 93.035156 73.5 89.921875 74.898438 87.230469 76.925781 L 72.371094 88.183594 L 81.835938 95.355469 L 92.203125 87.574219 L 92.230469 87.554688 C 96.691406 84.175781 98.390625 78.242188 96.394531 72.996094 Z M 96.394531 72.996094 "/>
<path style=" stroke:none;fill-rule:nonzero;fill:rgb(98.823529%,63.921569%,14.901961%);fill-opacity:1;" d="M 62.878906 95.355469 L 67.988281 99.226562 L 71.089844 101.578125 C 71.835938 102.148438 72.875 102.148438 73.617188 101.578125 L 76.71875 99.226562 L 81.828125 95.355469 L 72.363281 88.183594 Z M 62.878906 95.355469 "/>
<path style=" stroke:none;fill-rule:nonzero;fill:rgb(98.823529%,42.745098%,14.901961%);fill-opacity:1;" d="M 57.496094 76.925781 C 54.804688 74.898438 51.699219 73.5 48.410156 72.820312 L 48.335938 72.996094 C 46.335938 78.242188 48.03125 84.175781 52.507812 87.554688 L 52.535156 87.574219 L 52.585938 87.617188 L 62.878906 95.355469 L 72.34375 88.183594 Z M 57.496094 76.925781 "/>
</g>
</svg>
