<?xml version="1.0" encoding="UTF-8"?>
<svg xmlns="http://www.w3.org/2000/svg" xmlns:xlink="http://www.w3.org/1999/xlink" width="138px" height="53px" viewBox="0 0 138 53" version="1.1">
<g id="surface1">
<path style=" stroke:none;fill-rule:nonzero;fill:rgb(9.019608%,7.45098%,12.941176%);fill-opacity:1;" d="M 59.789062 23.921875 L 62.964844 23.921875 C 62.433594 20.542969 59.511719 18.191406 55.707031 18.191406 C 51.207031 18.191406 47.828125 21.5 47.828125 27.046875 C 47.828125 32.492188 51.054688 35.871094 55.800781 35.871094 C 60.058594 35.871094 63.105469 33.128906 63.105469 28.695312 L 63.105469 26.625 L 56.128906 26.625 L 56.128906 29.0625 L 60.089844 29.0625 C 60.042969 31.519531 58.402344 33.070312 55.816406 33.070312 C 52.9375 33.070312 50.960938 30.914062 50.960938 27.011719 C 50.960938 23.140625 52.96875 20.988281 55.75 20.988281 C 57.824219 20.988281 59.242188 22.097656 59.789062 23.921875 Z M 59.789062 23.921875 "/>
<path style=" stroke:none;fill-rule:nonzero;fill:rgb(9.019608%,7.45098%,12.941176%);fill-opacity:1;" d="M 65.207031 35.636719 L 68.246094 35.636719 L 68.246094 22.734375 L 65.207031 22.734375 Z M 66.738281 20.683594 C 67.703125 20.683594 68.492188 19.941406 68.492188 19.035156 C 68.492188 18.128906 67.703125 17.382812 66.738281 17.382812 C 65.773438 17.382812 64.976562 18.121094 64.976562 19.035156 C 64.976562 19.953125 65.757812 20.683594 66.734375 20.683594 Z M 66.738281 20.683594 "/>
<path style=" stroke:none;fill-rule:nonzero;fill:rgb(9.019608%,7.45098%,12.941176%);fill-opacity:1;" d="M 77.351562 22.734375 L 74.804688 22.734375 L 74.804688 19.636719 L 71.765625 19.636719 L 71.765625 22.734375 L 69.933594 22.734375 L 69.933594 25.085938 L 71.765625 25.085938 L 71.765625 32.265625 C 71.746094 34.691406 73.511719 35.890625 75.796875 35.820312 C 76.402344 35.808594 77.007812 35.707031 77.585938 35.515625 L 77.074219 33.136719 C 76.78125 33.214844 76.484375 33.253906 76.183594 33.257812 C 75.417969 33.257812 74.804688 32.988281 74.804688 31.757812 L 74.804688 25.082031 L 77.351562 25.082031 Z M 77.351562 22.734375 "/>
<path style=" stroke:none;fill-rule:nonzero;fill:rgb(9.019608%,7.45098%,12.941176%);fill-opacity:1;" d="M 79.703125 35.636719 L 90.394531 35.636719 L 90.394531 33.023438 L 82.820312 33.023438 L 82.820312 18.425781 L 79.703125 18.425781 Z M 79.703125 35.636719 "/>
<path style=" stroke:none;fill-rule:nonzero;fill:rgb(9.019608%,7.45098%,12.941176%);fill-opacity:1;" d="M 96.21875 35.894531 C 98.242188 35.894531 99.449219 34.945312 100.003906 33.863281 L 100.105469 33.863281 L 100.105469 35.636719 L 103.03125 35.636719 L 103.03125 26.996094 C 103.03125 23.585938 100.253906 22.558594 97.792969 22.558594 C 95.078125 22.558594 92.996094 23.769531 92.324219 26.121094 L 95.164062 26.527344 C 95.464844 25.644531 96.324219 24.886719 97.8125 24.886719 C 99.226562 24.886719 99.996094 25.609375 99.996094 26.878906 L 99.996094 26.929688 C 99.996094 27.800781 99.082031 27.847656 96.804688 28.089844 C 94.304688 28.359375 91.910156 29.105469 91.910156 32.011719 C 91.902344 34.550781 93.757812 35.894531 96.21875 35.894531 Z M 97.21875 33.664062 C 95.949219 33.664062 95.042969 33.085938 95.042969 31.96875 C 95.042969 30.796875 96.058594 30.3125 97.410156 30.117188 C 98.210938 30.007812 99.804688 29.808594 100.199219 29.488281 L 100.199219 31.007812 C 100.207031 32.441406 99.046875 33.660156 97.21875 33.660156 Z M 97.21875 33.664062 "/>
<path style=" stroke:none;fill-rule:nonzero;fill:rgb(9.019608%,7.45098%,12.941176%);fill-opacity:1;" d="M 105.273438 35.636719 L 108.261719 35.636719 L 108.261719 33.601562 L 108.4375 33.601562 C 108.917969 34.542969 109.917969 35.863281 112.132812 35.863281 C 115.175781 35.863281 117.449219 33.449219 117.449219 29.199219 C 117.449219 24.894531 115.105469 22.558594 112.125 22.558594 C 109.847656 22.558594 108.898438 23.929688 108.4375 24.863281 L 108.308594 24.863281 L 108.308594 18.425781 L 105.273438 18.425781 Z M 108.253906 29.183594 C 108.253906 26.671875 109.328125 25.054688 111.285156 25.054688 C 113.308594 25.054688 114.351562 26.777344 114.351562 29.183594 C 114.351562 31.585938 113.292969 33.367188 111.285156 33.367188 C 109.34375 33.367188 108.253906 31.6875 108.253906 29.183594 Z M 108.253906 29.183594 "/>
<path style=" stroke:none;fill-rule:nonzero;fill:rgb(88.627451%,26.27451%,16.078431%);fill-opacity:1;" d="M 42.097656 24.320312 L 42.066406 24.242188 L 39.113281 16.527344 C 39.050781 16.378906 38.945312 16.25 38.808594 16.164062 C 38.601562 16.027344 38.339844 16.003906 38.109375 16.089844 C 37.878906 16.179688 37.703125 16.371094 37.636719 16.609375 L 35.640625 22.71875 L 27.5625 22.71875 L 25.570312 16.609375 C 25.5 16.371094 25.324219 16.179688 25.09375 16.089844 C 24.863281 16.003906 24.605469 16.03125 24.398438 16.164062 C 24.257812 16.25 24.152344 16.378906 24.09375 16.527344 L 21.140625 24.242188 L 21.109375 24.320312 C 20.234375 26.605469 20.976562 29.191406 22.929688 30.664062 L 22.941406 30.671875 L 22.964844 30.691406 L 27.460938 34.0625 L 29.691406 35.75 L 31.046875 36.773438 C 31.371094 37.023438 31.824219 37.023438 32.148438 36.773438 L 33.503906 35.75 L 35.734375 34.0625 L 40.261719 30.671875 L 40.273438 30.664062 C 42.226562 29.191406 42.96875 26.605469 42.097656 24.320312 Z M 42.097656 24.320312 "/>
<path style=" stroke:none;fill-rule:nonzero;fill:rgb(98.823529%,42.745098%,14.901961%);fill-opacity:1;" d="M 42.097656 24.320312 L 42.066406 24.242188 C 40.628906 24.539062 39.269531 25.148438 38.09375 26.03125 L 31.605469 30.9375 L 35.738281 34.0625 L 40.265625 30.671875 L 40.277344 30.664062 C 42.226562 29.191406 42.96875 26.605469 42.097656 24.320312 Z M 42.097656 24.320312 "/>
<path style=" stroke:none;fill-rule:nonzero;fill:rgb(98.823529%,63.921569%,14.901961%);fill-opacity:1;" d="M 27.460938 34.0625 L 29.691406 35.75 L 31.046875 36.773438 C 31.371094 37.023438 31.824219 37.023438 32.148438 36.773438 L 33.503906 35.75 L 35.734375 34.0625 L 31.601562 30.9375 Z M 27.460938 34.0625 "/>
<path style=" stroke:none;fill-rule:nonzero;fill:rgb(98.823529%,42.745098%,14.901961%);fill-opacity:1;" d="M 25.109375 26.03125 C 23.933594 25.148438 22.578125 24.539062 21.140625 24.242188 L 21.109375 24.320312 C 20.234375 26.605469 20.976562 29.191406 22.929688 30.664062 L 22.941406 30.671875 L 22.964844 30.691406 L 27.460938 34.0625 L 31.59375 30.9375 Z M 25.109375 26.03125 "/>
</g>
</svg>
