<?xml version="1.0" encoding="UTF-8"?>
<svg xmlns="http://www.w3.org/2000/svg" xmlns:xlink="http://www.w3.org/1999/xlink" width="50px" height="50px" viewBox="0 0 50 50" version="1.1">
<defs>
<linearGradient id="linear0" gradientUnits="userSpaceOnUse" x1="66.73" y1="-662.84" x2="26.4" y2="-613.01" gradientTransform="matrix(0.390594,0,0,-0.390594,0,-228.50168)">
<stop offset="0.06" style="stop-color:rgb(4.705882%,69.019608%,94.901961%);stop-opacity:1;"/>
<stop offset="0.21" style="stop-color:rgb(6.27451%,67.843137%,94.901961%);stop-opacity:1;"/>
<stop offset="0.37" style="stop-color:rgb(11.764706%,64.705882%,95.294118%);stop-opacity:1;"/>
<stop offset="0.54" style="stop-color:rgb(20.392157%,59.215686%,96.078431%);stop-opacity:1;"/>
<stop offset="0.71" style="stop-color:rgb(32.156863%,51.372549%,96.862745%);stop-opacity:1;"/>
<stop offset="0.88" style="stop-color:rgb(47.45098%,41.568627%,97.647059%);stop-opacity:1;"/>
<stop offset="0.97" style="stop-color:rgb(56.470588%,36.078431%,98.431373%);stop-opacity:1;"/>
</linearGradient>
<linearGradient id="linear1" gradientUnits="userSpaceOnUse" x1="20.9" y1="-706.33" x2="41.11" y2="-659.59" gradientTransform="matrix(0.390594,0,0,-0.390594,0,-228.50168)">
<stop offset="0.06" style="stop-color:rgb(4.705882%,69.019608%,94.901961%);stop-opacity:1;"/>
<stop offset="0.2" style="stop-color:rgb(5.098039%,69.803922%,93.333333%);stop-opacity:1;"/>
<stop offset="0.35" style="stop-color:rgb(7.058824%,71.764706%,87.843137%);stop-opacity:1;"/>
<stop offset="0.51" style="stop-color:rgb(9.803922%,75.294118%,79.215686%);stop-opacity:1;"/>
<stop offset="0.68" style="stop-color:rgb(13.72549%,80%,67.45098%);stop-opacity:1;"/>
<stop offset="0.85" style="stop-color:rgb(18.823529%,86.27451%,52.156863%);stop-opacity:1;"/>
<stop offset="0.97" style="stop-color:rgb(23.137255%,91.764706%,38.431373%);stop-opacity:1;"/>
</linearGradient>
<linearGradient id="linear2" gradientUnits="userSpaceOnUse" x1="48.62" y1="-644.91" x2="88.12" y2="-594.24" gradientTransform="matrix(0.390594,0,0,-0.390594,0,-228.50168)">
<stop offset="0.06" style="stop-color:rgb(4.705882%,69.019608%,94.901961%);stop-opacity:1;"/>
<stop offset="0.2" style="stop-color:rgb(5.098039%,69.803922%,93.333333%);stop-opacity:1;"/>
<stop offset="0.35" style="stop-color:rgb(7.058824%,71.764706%,87.843137%);stop-opacity:1;"/>
<stop offset="0.51" style="stop-color:rgb(9.803922%,75.294118%,79.215686%);stop-opacity:1;"/>
<stop offset="0.68" style="stop-color:rgb(13.72549%,80%,67.45098%);stop-opacity:1;"/>
<stop offset="0.85" style="stop-color:rgb(18.823529%,86.27451%,52.156863%);stop-opacity:1;"/>
<stop offset="0.97" style="stop-color:rgb(23.137255%,91.764706%,38.431373%);stop-opacity:1;"/>
</linearGradient>
</defs>
<g id="surface1">
<path style=" stroke:none;fill-rule:nonzero;fill:url(#linear0);" d="M 17.9375 1.140625 C 17.25 0.796875 16.523438 0.535156 15.777344 0.359375 C 5.738281 -2.023438 -1.722656 7.820312 2.378906 16.765625 C 2.417969 16.804688 9.683594 32.738281 10.855469 35.277344 C 10.855469 35.277344 24.214844 29.144531 26.945312 22.859375 C 29.476562 17 25.207031 6.304688 24.429688 4.699219 Z M 17.9375 1.140625 "/>
<path style=" stroke:none;fill-rule:nonzero;fill:rgb(4.705882%,69.019608%,94.901961%);fill-opacity:1;" d="M 48.117188 18.917969 C 47.269531 17.617188 46.117188 16.542969 44.757812 15.792969 C 44.71875 15.792969 35.34375 10.636719 35.34375 10.636719 C 35.34375 10.636719 3.160156 29.292969 3.125 29.34375 C -0.507812 33.484375 -1.328125 40.046875 2.851562 45.75 C 4.113281 47.464844 5.894531 48.726562 7.929688 49.34375 C 11.71875 50.515625 15.078125 50.046875 17.890625 48.5625 C 17.96875 48.523438 44.332031 34.539062 44.410156 34.460938 C 49.5625 31.765625 51.949219 24.894531 48.117188 18.917969 Z M 48.117188 18.917969 "/>
<path style=" stroke:none;fill-rule:nonzero;fill:url(#linear1);" d="M 15.007812 14.820312 L 6.414062 25.363281 L 3.082031 29.34375 C -0.550781 33.484375 -1.371094 40.046875 2.808594 45.75 C 4.070312 47.464844 5.851562 48.726562 7.886719 49.34375 C 11.675781 50.515625 15.074219 50.046875 17.886719 48.5625 C 17.886719 48.5625 18.550781 48.210938 19.683594 47.585938 C 23.253906 45.65625 28.175781 32.683594 31.535156 22.65625 Z M 15.007812 14.820312 "/>
<path style=" stroke:none;fill-rule:nonzero;fill:url(#linear2);" d="M 28.511719 24.972656 L 35.34375 10.546875 C 35.34375 10.523438 35.363281 10.507812 35.382812 10.507812 C 35.421875 10.390625 35.96875 8.984375 36.007812 8.90625 C 36.824219 6.847656 36.5625 4.519531 35.304688 2.695312 C 34.519531 1.449219 33.269531 0.5625 31.828125 0.234375 C 29.359375 -0.421875 26.734375 0.453125 25.148438 2.460938 C 25.109375 2.5 23.628906 4.21875 23.628906 4.21875 L 12.691406 17.695312 Z M 28.511719 24.972656 "/>
<path style=" stroke:none;fill-rule:nonzero;fill:rgb(0%,0%,0%);fill-opacity:1;" d="M 9.371094 9.347656 L 40.617188 9.347656 L 40.617188 40.59375 L 9.371094 40.59375 Z M 9.371094 9.347656 "/>
<path style=" stroke:none;fill-rule:nonzero;fill:rgb(100%,100%,100%);fill-opacity:1;" d="M 16.714844 16.261719 L 12.496094 16.261719 L 12.496094 13.527344 L 23.941406 13.527344 L 23.941406 16.261719 L 19.761719 16.261719 L 19.761719 27.035156 L 16.714844 27.035156 Z M 23.941406 20.3125 C 23.941406 16.40625 26.828125 13.242188 31.007812 13.242188 C 33.546875 13.242188 35.109375 14.101562 36.359375 15.351562 L 34.445312 17.539062 C 33.390625 16.601562 32.335938 16.015625 30.96875 16.015625 C 28.703125 16.015625 27.023438 17.929688 27.023438 20.234375 L 27.023438 20.273438 C 27.023438 22.617188 28.625 24.53125 30.96875 24.53125 C 32.53125 24.53125 33.46875 23.90625 34.523438 22.929688 L 36.4375 24.84375 C 35.03125 26.324219 33.507812 27.261719 30.890625 27.261719 C 29.035156 27.304688 27.242188 26.585938 25.929688 25.273438 C 24.617188 23.960938 23.898438 22.167969 23.941406 20.3125 M 12.496094 34.34375 L 23.941406 34.34375 L 23.941406 36.414062 L 12.496094 36.414062 Z M 12.496094 34.34375 "/>
</g>
</svg>
